<?xml version="1.0" encoding="UTF-8" standalone="no"?>
<!DOCTYPE svg PUBLIC "-//W3C//DTD SVG 1.1//EN"
 "http://www.w3.org/Graphics/SVG/1.1/DTD/svg11.dtd">
<!-- Generated by graphviz version 2.43.0 (0)
 -->
<!-- Title: aoc25 Pages: 1 -->
<svg width="530pt" height="462pt"
 viewBox="0.00 0.00 529.70 461.88" xmlns="http://www.w3.org/2000/svg" xmlns:xlink="http://www.w3.org/1999/xlink">
<g id="graph0" class="graph" transform="scale(1 1) rotate(0) translate(4 457.88)">
<title>aoc25</title>
<polygon fill="white" stroke="transparent" points="-4,4 -4,-457.88 525.7,-457.88 525.7,4 -4,4"/>
<!-- rsh -->
<g id="node1" class="node">
<title>rsh</title>
<ellipse fill="none" stroke="black" cx="27" cy="-181.76" rx="27" ry="18"/>
<text text-anchor="middle" x="27" y="-178.06" font-family="Times,serif" font-size="14.00">rsh</text>
</g>
<!-- frs -->
<g id="node2" class="node">
<title>frs</title>
<ellipse fill="none" stroke="black" cx="183.1" cy="-302.85" rx="27" ry="18"/>
<text text-anchor="middle" x="183.1" y="-299.15" font-family="Times,serif" font-size="14.00">frs</text>
</g>
<!-- rsh&#45;&#45;frs -->
<g id="edge1" class="edge">
<title>rsh&#45;&#45;frs</title>
<path fill="none" stroke="black" d="M44.6,-195.42C74.58,-218.67 135.22,-265.71 165.32,-289.06"/>
</g>
<!-- pzl -->
<g id="node3" class="node">
<title>pzl</title>
<ellipse fill="none" stroke="black" cx="59.36" cy="-39.61" rx="27" ry="18"/>
<text text-anchor="middle" x="59.36" y="-35.91" font-family="Times,serif" font-size="14.00">pzl</text>
</g>
<!-- rsh&#45;&#45;pzl -->
<g id="edge2" class="edge">
<title>rsh&#45;&#45;pzl</title>
<path fill="none" stroke="black" d="M31.1,-163.76C37.32,-136.42 49.09,-84.73 55.29,-57.47"/>
</g>
<!-- lsr -->
<g id="node4" class="node">
<title>lsr</title>
<ellipse fill="none" stroke="black" cx="109.38" cy="-209.25" rx="27" ry="18"/>
<text text-anchor="middle" x="109.38" y="-205.55" font-family="Times,serif" font-size="14.00">lsr</text>
</g>
<!-- rsh&#45;&#45;lsr -->
<g id="edge3" class="edge">
<title>rsh&#45;&#45;lsr</title>
<path fill="none" stroke="black" d="M51.27,-189.86C61.9,-193.41 74.35,-197.56 85,-201.12"/>
</g>
<!-- rzs -->
<g id="node5" class="node">
<title>rzs</title>
<ellipse fill="none" stroke="black" cx="182.81" cy="-102.93" rx="27" ry="18"/>
<text text-anchor="middle" x="182.81" y="-99.23" font-family="Times,serif" font-size="14.00">rzs</text>
</g>
<!-- rsh&#45;&#45;rzs -->
<g id="edge4" class="edge">
<title>rsh&#45;&#45;rzs</title>
<path fill="none" stroke="black" d="M48.67,-170.8C78.35,-155.78 131.36,-128.96 161.08,-113.92"/>
</g>
<!-- frs&#45;&#45;lsr -->
<g id="edge5" class="edge">
<title>frs&#45;&#45;lsr</title>
<path fill="none" stroke="black" d="M170.26,-286.55C156.73,-269.37 135.55,-242.48 122.07,-225.37"/>
</g>
<!-- lhk -->
<g id="node6" class="node">
<title>lhk</title>
<ellipse fill="none" stroke="black" cx="264.72" cy="-200.79" rx="27" ry="18"/>
<text text-anchor="middle" x="264.72" y="-197.09" font-family="Times,serif" font-size="14.00">lhk</text>
</g>
<!-- frs&#45;&#45;lhk -->
<g id="edge6" class="edge">
<title>frs&#45;&#45;lhk</title>
<path fill="none" stroke="black" d="M195.85,-286.91C211.1,-267.84 236.46,-236.12 251.79,-216.96"/>
</g>
<!-- qnr -->
<g id="node7" class="node">
<title>qnr</title>
<ellipse fill="none" stroke="black" cx="326.72" cy="-175.08" rx="27" ry="18"/>
<text text-anchor="middle" x="326.72" y="-171.38" font-family="Times,serif" font-size="14.00">qnr</text>
</g>
<!-- frs&#45;&#45;qnr -->
<g id="edge7" class="edge">
<title>frs&#45;&#45;qnr</title>
<path fill="none" stroke="black" d="M199.3,-288.45C226.88,-263.91 282.67,-214.27 310.36,-189.64"/>
</g>
<!-- lsr&#45;&#45;pzl -->
<g id="edge21" class="edge">
<title>lsr&#45;&#45;pzl</title>
<path fill="none" stroke="black" d="M104.12,-191.42C94.51,-158.84 74.23,-90.06 64.62,-57.46"/>
</g>
<!-- lsr&#45;&#45;lhk -->
<g id="edge22" class="edge">
<title>lsr&#45;&#45;lhk</title>
<path fill="none" stroke="black" d="M136.44,-207.78C164.86,-206.23 209.3,-203.81 237.71,-202.26"/>
</g>
<!-- rzs&#45;&#45;lsr -->
<g id="edge10" class="edge">
<title>rzs&#45;&#45;lsr</title>
<path fill="none" stroke="black" d="M171.34,-119.54C157.54,-139.52 134.53,-172.83 120.77,-192.76"/>
</g>
<!-- rzs&#45;&#45;qnr -->
<g id="edge9" class="edge">
<title>rzs&#45;&#45;qnr</title>
<path fill="none" stroke="black" d="M204.67,-113.89C231.87,-127.53 278.05,-150.68 305.13,-164.26"/>
</g>
<!-- cmg -->
<g id="node8" class="node">
<title>cmg</title>
<ellipse fill="none" stroke="black" cx="346.58" cy="-61.34" rx="27" ry="18"/>
<text text-anchor="middle" x="346.58" y="-57.64" font-family="Times,serif" font-size="14.00">cmg</text>
</g>
<!-- rzs&#45;&#45;cmg -->
<g id="edge8" class="edge">
<title>rzs&#45;&#45;cmg</title>
<path fill="none" stroke="black" d="M208.4,-96.43C239.17,-88.62 290.48,-75.59 321.17,-67.79"/>
</g>
<!-- cmg&#45;&#45;lhk -->
<g id="edge30" class="edge">
<title>cmg&#45;&#45;lhk</title>
<path fill="none" stroke="black" d="M336.7,-78.16C320.97,-104.97 290.38,-157.07 274.63,-183.91"/>
</g>
<!-- cmg&#45;&#45;qnr -->
<g id="edge29" class="edge">
<title>cmg&#45;&#45;qnr</title>
<path fill="none" stroke="black" d="M343.43,-79.37C339.71,-100.66 333.56,-135.88 329.85,-157.15"/>
</g>
<!-- xhk -->
<g id="node9" class="node">
<title>xhk</title>
<ellipse fill="none" stroke="black" cx="337.85" cy="-309.3" rx="27" ry="18"/>
<text text-anchor="middle" x="337.85" y="-305.6" font-family="Times,serif" font-size="14.00">xhk</text>
</g>
<!-- bvb -->
<g id="node10" class="node">
<title>bvb</title>
<ellipse fill="none" stroke="black" cx="494.7" cy="-324.96" rx="27" ry="18"/>
<text text-anchor="middle" x="494.7" y="-321.26" font-family="Times,serif" font-size="14.00">bvb</text>
</g>
<!-- xhk&#45;&#45;bvb -->
<g id="edge11" class="edge">
<title>xhk&#45;&#45;bvb</title>
<path fill="none" stroke="black" d="M364.81,-311.99C393.63,-314.87 439.04,-319.4 467.82,-322.28"/>
</g>
<!-- hfx -->
<g id="node11" class="node">
<title>hfx</title>
<ellipse fill="none" stroke="black" cx="428.81" cy="-256" rx="27" ry="18"/>
<text text-anchor="middle" x="428.81" y="-252.3" font-family="Times,serif" font-size="14.00">hfx</text>
</g>
<!-- xhk&#45;&#45;hfx -->
<g id="edge12" class="edge">
<title>xhk&#45;&#45;hfx</title>
<path fill="none" stroke="black" d="M358.49,-297.2C373.37,-288.48 393.38,-276.76 408.25,-268.05"/>
</g>
<!-- rhn -->
<g id="node12" class="node">
<title>rhn</title>
<ellipse fill="none" stroke="black" cx="430.41" cy="-411.48" rx="27" ry="18"/>
<text text-anchor="middle" x="430.41" y="-407.78" font-family="Times,serif" font-size="14.00">rhn</text>
</g>
<!-- xhk&#45;&#45;rhn -->
<g id="edge13" class="edge">
<title>xhk&#45;&#45;rhn</title>
<path fill="none" stroke="black" d="M351.9,-324.82C369.3,-344.03 398.76,-376.55 416.22,-395.82"/>
</g>
<!-- ntq -->
<g id="node13" class="node">
<title>ntq</title>
<ellipse fill="none" stroke="black" cx="387.09" cy="-367.48" rx="27" ry="18"/>
<text text-anchor="middle" x="387.09" y="-363.78" font-family="Times,serif" font-size="14.00">ntq</text>
</g>
<!-- xhk&#45;&#45;ntq -->
<g id="edge14" class="edge">
<title>xhk&#45;&#45;ntq</title>
<path fill="none" stroke="black" d="M351.3,-325.2C358.25,-333.41 366.7,-343.4 373.65,-351.6"/>
</g>
<!-- jqt -->
<g id="node14" class="node">
<title>jqt</title>
<ellipse fill="none" stroke="black" cx="299" cy="-435.88" rx="27" ry="18"/>
<text text-anchor="middle" x="299" y="-432.18" font-family="Times,serif" font-size="14.00">jqt</text>
</g>
<!-- xhk&#45;&#45;jqt -->
<g id="edge15" class="edge">
<title>xhk&#45;&#45;jqt</title>
<path fill="none" stroke="black" d="M332.36,-327.17C324.96,-351.29 311.84,-394.03 304.46,-418.11"/>
</g>
<!-- hfx&#45;&#45;bvb -->
<g id="edge20" class="edge">
<title>hfx&#45;&#45;bvb</title>
<path fill="none" stroke="black" d="M443.43,-271.3C454.35,-282.73 469.21,-298.28 480.11,-309.7"/>
</g>
<!-- hfx&#45;&#45;rhn -->
<g id="edge19" class="edge">
<title>hfx&#45;&#45;rhn</title>
<path fill="none" stroke="black" d="M429,-274.14C429.3,-304.1 429.91,-363.58 430.22,-393.46"/>
</g>
<!-- rhn&#45;&#45;bvb -->
<g id="edge27" class="edge">
<title>rhn&#45;&#45;bvb</title>
<path fill="none" stroke="black" d="M442.5,-395.21C453.99,-379.74 471.18,-356.61 482.66,-341.16"/>
</g>
<!-- rhn&#45;&#45;jqt -->
<g id="edge28" class="edge">
<title>rhn&#45;&#45;jqt</title>
<path fill="none" stroke="black" d="M404.13,-416.36C381.21,-420.62 348.14,-426.76 325.23,-431.01"/>
</g>
<!-- ntq&#45;&#45;bvb -->
<g id="edge18" class="edge">
<title>ntq&#45;&#45;bvb</title>
<path fill="none" stroke="black" d="M410.44,-358.26C428.49,-351.13 453.35,-341.3 471.39,-334.17"/>
</g>
<!-- ntq&#45;&#45;hfx -->
<g id="edge16" class="edge">
<title>ntq&#45;&#45;hfx</title>
<path fill="none" stroke="black" d="M393.79,-349.57C401.62,-328.65 414.5,-294.25 422.26,-273.5"/>
</g>
<!-- ntq&#45;&#45;jqt -->
<g id="edge17" class="edge">
<title>ntq&#45;&#45;jqt</title>
<path fill="none" stroke="black" d="M369.26,-381.33C353.98,-393.19 332.08,-410.2 316.8,-422.06"/>
</g>
<!-- nvd -->
<g id="node15" class="node">
<title>nvd</title>
<ellipse fill="none" stroke="black" cx="238.85" cy="-18" rx="27" ry="18"/>
<text text-anchor="middle" x="238.85" y="-14.3" font-family="Times,serif" font-size="14.00">nvd</text>
</g>
<!-- nvd&#45;&#45;pzl -->
<g id="edge25" class="edge">
<title>nvd&#45;&#45;pzl</title>
<path fill="none" stroke="black" d="M211.98,-21.24C178.04,-25.32 120,-32.31 86.12,-36.39"/>
</g>
<!-- nvd&#45;&#45;lhk -->
<g id="edge26" class="edge">
<title>nvd&#45;&#45;lhk</title>
<path fill="none" stroke="black" d="M241.43,-36.19C246.39,-71.23 257.2,-147.69 262.15,-182.67"/>
</g>
<!-- nvd&#45;&#45;qnr -->
<g id="edge24" class="edge">
<title>nvd&#45;&#45;qnr</title>
<path fill="none" stroke="black" d="M248.42,-35.11C265.33,-65.33 300.27,-127.79 317.16,-157.99"/>
</g>
<!-- nvd&#45;&#45;cmg -->
<g id="edge23" class="edge">
<title>nvd&#45;&#45;cmg</title>
<path fill="none" stroke="black" d="M262.23,-27.4C280.3,-34.67 305.19,-44.69 323.25,-51.96"/>
</g>
</g>
</svg>
