<?xml version="1.0" encoding="UTF-8" standalone="no"?>
<!DOCTYPE svg PUBLIC "-//W3C//DTD SVG 1.1//EN"
 "http://www.w3.org/Graphics/SVG/1.1/DTD/svg11.dtd">
<!-- Generated by graphviz version 2.43.0 (0)
 -->
<!-- Title: aoc25 Pages: 1 -->
<svg width="421pt" height="545pt"
 viewBox="0.00 0.00 420.62 545.42" xmlns="http://www.w3.org/2000/svg" xmlns:xlink="http://www.w3.org/1999/xlink">
<g id="graph0" class="graph" transform="scale(1 1) rotate(0) translate(4 541.42)">
<title>aoc25</title>
<polygon fill="white" stroke="transparent" points="-4,4 -4,-541.42 416.62,-541.42 416.62,4 -4,4"/>
<!-- jqt -->
<g id="node1" class="node">
<title>jqt</title>
<ellipse fill="none" stroke="black" cx="169.22" cy="-66.97" rx="27" ry="18"/>
<text text-anchor="middle" x="169.22" y="-63.27" font-family="Times,serif" font-size="14.00">jqt</text>
</g>
<!-- rhn -->
<g id="node2" class="node">
<title>rhn</title>
<ellipse fill="none" stroke="black" cx="338.27" cy="-24.99" rx="27" ry="18"/>
<text text-anchor="middle" x="338.27" y="-21.29" font-family="Times,serif" font-size="14.00">rhn</text>
</g>
<!-- jqt&#45;&#45;rhn -->
<g id="edge1" class="edge">
<title>jqt&#45;&#45;rhn</title>
<path fill="none" stroke="black" d="M194.52,-60.69C226.39,-52.77 280.83,-39.25 312.79,-31.32"/>
</g>
<!-- xhk -->
<g id="node3" class="node">
<title>xhk</title>
<ellipse fill="none" stroke="black" cx="259.05" cy="-18" rx="27" ry="18"/>
<text text-anchor="middle" x="259.05" y="-14.3" font-family="Times,serif" font-size="14.00">xhk</text>
</g>
<!-- jqt&#45;&#45;xhk -->
<g id="edge2" class="edge">
<title>jqt&#45;&#45;xhk</title>
<path fill="none" stroke="black" d="M190.5,-55.37C204.82,-47.56 223.62,-37.31 237.91,-29.52"/>
</g>
<!-- nvd -->
<g id="node4" class="node">
<title>nvd</title>
<ellipse fill="none" stroke="black" cx="109.29" cy="-225.01" rx="27" ry="18"/>
<text text-anchor="middle" x="109.29" y="-221.31" font-family="Times,serif" font-size="14.00">nvd</text>
</g>
<!-- jqt&#45;&#45;nvd -->
<g id="edge3" class="edge">
<title>jqt&#45;&#45;nvd</title>
<path fill="none" stroke="black" d="M162.57,-84.49C151.06,-114.87 127.5,-176.98 115.97,-207.41"/>
</g>
<!-- rhn&#45;&#45;xhk -->
<g id="edge12" class="edge">
<title>rhn&#45;&#45;xhk</title>
<path fill="none" stroke="black" d="M311.45,-22.62C303.19,-21.89 294.1,-21.09 285.84,-20.36"/>
</g>
<!-- hfx -->
<g id="node9" class="node">
<title>hfx</title>
<ellipse fill="none" stroke="black" cx="295.68" cy="-150.24" rx="27" ry="18"/>
<text text-anchor="middle" x="295.68" y="-146.54" font-family="Times,serif" font-size="14.00">hfx</text>
</g>
<!-- rhn&#45;&#45;hfx -->
<g id="edge14" class="edge">
<title>rhn&#45;&#45;hfx</title>
<path fill="none" stroke="black" d="M332.26,-42.67C324.14,-66.54 309.76,-108.82 301.66,-132.65"/>
</g>
<!-- bvb -->
<g id="node13" class="node">
<title>bvb</title>
<ellipse fill="none" stroke="black" cx="357.68" cy="-191.87" rx="27" ry="18"/>
<text text-anchor="middle" x="357.68" y="-188.17" font-family="Times,serif" font-size="14.00">bvb</text>
</g>
<!-- rhn&#45;&#45;bvb -->
<g id="edge13" class="edge">
<title>rhn&#45;&#45;bvb</title>
<path fill="none" stroke="black" d="M340.38,-43.16C344.11,-75.26 351.83,-141.63 355.56,-173.71"/>
</g>
<!-- xhk&#45;&#45;hfx -->
<g id="edge7" class="edge">
<title>xhk&#45;&#45;hfx</title>
<path fill="none" stroke="black" d="M263.99,-35.83C270.98,-61.07 283.69,-106.95 290.7,-132.26"/>
</g>
<!-- lhk -->
<g id="node12" class="node">
<title>lhk</title>
<ellipse fill="none" stroke="black" cx="27" cy="-341.79" rx="27" ry="18"/>
<text text-anchor="middle" x="27" y="-338.09" font-family="Times,serif" font-size="14.00">lhk</text>
</g>
<!-- nvd&#45;&#45;lhk -->
<g id="edge25" class="edge">
<title>nvd&#45;&#45;lhk</title>
<path fill="none" stroke="black" d="M97.5,-241.74C81.77,-264.07 54.09,-303.35 38.5,-325.47"/>
</g>
<!-- rsh -->
<g id="node5" class="node">
<title>rsh</title>
<ellipse fill="none" stroke="black" cx="295.66" cy="-484.6" rx="27" ry="18"/>
<text text-anchor="middle" x="295.66" y="-480.9" font-family="Times,serif" font-size="14.00">rsh</text>
</g>
<!-- frs -->
<g id="node6" class="node">
<title>frs</title>
<ellipse fill="none" stroke="black" cx="77.11" cy="-519.42" rx="27" ry="18"/>
<text text-anchor="middle" x="77.11" y="-515.72" font-family="Times,serif" font-size="14.00">frs</text>
</g>
<!-- rsh&#45;&#45;frs -->
<g id="edge4" class="edge">
<title>rsh&#45;&#45;frs</title>
<path fill="none" stroke="black" d="M269.29,-488.8C227.29,-495.5 145.63,-508.5 103.56,-515.21"/>
</g>
<!-- pzl -->
<g id="node7" class="node">
<title>pzl</title>
<ellipse fill="none" stroke="black" cx="288.25" cy="-319.28" rx="27" ry="18"/>
<text text-anchor="middle" x="288.25" y="-315.58" font-family="Times,serif" font-size="14.00">pzl</text>
</g>
<!-- rsh&#45;&#45;pzl -->
<g id="edge5" class="edge">
<title>rsh&#45;&#45;pzl</title>
<path fill="none" stroke="black" d="M294.85,-466.6C293.43,-434.88 290.5,-369.4 289.07,-337.52"/>
</g>
<!-- lsr -->
<g id="node8" class="node">
<title>lsr</title>
<ellipse fill="none" stroke="black" cx="169.14" cy="-432.3" rx="27" ry="18"/>
<text text-anchor="middle" x="169.14" y="-428.6" font-family="Times,serif" font-size="14.00">lsr</text>
</g>
<!-- rsh&#45;&#45;lsr -->
<g id="edge6" class="edge">
<title>rsh&#45;&#45;lsr</title>
<path fill="none" stroke="black" d="M272.45,-475.01C249.62,-465.57 214.97,-451.25 192.19,-441.83"/>
</g>
<!-- frs&#45;&#45;lsr -->
<g id="edge33" class="edge">
<title>frs&#45;&#45;lsr</title>
<path fill="none" stroke="black" d="M92.72,-504.64C109.64,-488.62 136.49,-463.2 153.45,-447.15"/>
</g>
<!-- qnr -->
<g id="node11" class="node">
<title>qnr</title>
<ellipse fill="none" stroke="black" cx="74.24" cy="-387.67" rx="27" ry="18"/>
<text text-anchor="middle" x="74.24" y="-383.97" font-family="Times,serif" font-size="14.00">qnr</text>
</g>
<!-- frs&#45;&#45;qnr -->
<g id="edge31" class="edge">
<title>frs&#45;&#45;qnr</title>
<path fill="none" stroke="black" d="M76.71,-501.38C76.17,-476.29 75.19,-431.12 74.64,-405.92"/>
</g>
<!-- frs&#45;&#45;lhk -->
<g id="edge32" class="edge">
<title>frs&#45;&#45;lhk</title>
<path fill="none" stroke="black" d="M72.03,-501.41C62.4,-467.28 41.6,-393.55 32.02,-359.58"/>
</g>
<!-- pzl&#45;&#45;nvd -->
<g id="edge19" class="edge">
<title>pzl&#45;&#45;nvd</title>
<path fill="none" stroke="black" d="M267.02,-308.1C232.58,-289.95 164.92,-254.31 130.5,-236.18"/>
</g>
<!-- pzl&#45;&#45;lsr -->
<g id="edge17" class="edge">
<title>pzl&#45;&#45;lsr</title>
<path fill="none" stroke="black" d="M272.68,-334.06C249.85,-355.72 207.54,-395.86 184.71,-417.52"/>
</g>
<!-- pzl&#45;&#45;hfx -->
<g id="edge18" class="edge">
<title>pzl&#45;&#45;hfx</title>
<path fill="none" stroke="black" d="M289.05,-301.19C290.47,-268.74 293.45,-201 294.88,-168.45"/>
</g>
<!-- lsr&#45;&#45;lhk -->
<g id="edge26" class="edge">
<title>lsr&#45;&#45;lhk</title>
<path fill="none" stroke="black" d="M149.37,-419.71C122.22,-402.42 73.66,-371.5 46.6,-354.27"/>
</g>
<!-- cmg -->
<g id="node10" class="node">
<title>cmg</title>
<ellipse fill="none" stroke="black" cx="190.31" cy="-304.21" rx="27" ry="18"/>
<text text-anchor="middle" x="190.31" y="-300.51" font-family="Times,serif" font-size="14.00">cmg</text>
</g>
<!-- cmg&#45;&#45;nvd -->
<g id="edge9" class="edge">
<title>cmg&#45;&#45;nvd</title>
<path fill="none" stroke="black" d="M175.07,-289.31C160.68,-275.24 139.2,-254.24 124.74,-240.11"/>
</g>
<!-- cmg&#45;&#45;qnr -->
<g id="edge8" class="edge">
<title>cmg&#45;&#45;qnr</title>
<path fill="none" stroke="black" d="M171.92,-317.43C150.31,-332.97 114.67,-358.61 92.93,-374.23"/>
</g>
<!-- cmg&#45;&#45;lhk -->
<g id="edge10" class="edge">
<title>cmg&#45;&#45;lhk</title>
<path fill="none" stroke="black" d="M164.43,-310.16C133.85,-317.2 83.28,-328.84 52.76,-335.86"/>
</g>
<!-- cmg&#45;&#45;bvb -->
<g id="edge11" class="edge">
<title>cmg&#45;&#45;bvb</title>
<path fill="none" stroke="black" d="M209.51,-291.32C241.71,-269.71 306.22,-226.4 338.44,-204.78"/>
</g>
<!-- qnr&#45;&#45;nvd -->
<g id="edge20" class="edge">
<title>qnr&#45;&#45;nvd</title>
<path fill="none" stroke="black" d="M78.13,-369.64C84.86,-338.38 98.64,-274.44 105.39,-243.12"/>
</g>
<!-- bvb&#45;&#45;xhk -->
<g id="edge15" class="edge">
<title>bvb&#45;&#45;xhk</title>
<path fill="none" stroke="black" d="M348.04,-174.88C329.18,-141.64 287.61,-68.35 268.72,-35.06"/>
</g>
<!-- bvb&#45;&#45;hfx -->
<g id="edge16" class="edge">
<title>bvb&#45;&#45;hfx</title>
<path fill="none" stroke="black" d="M338.4,-178.92C330.86,-173.86 322.24,-168.08 314.73,-163.03"/>
</g>
<!-- ntq -->
<g id="node14" class="node">
<title>ntq</title>
<ellipse fill="none" stroke="black" cx="385.62" cy="-72.01" rx="27" ry="18"/>
<text text-anchor="middle" x="385.62" y="-68.31" font-family="Times,serif" font-size="14.00">ntq</text>
</g>
<!-- ntq&#45;&#45;jqt -->
<g id="edge21" class="edge">
<title>ntq&#45;&#45;jqt</title>
<path fill="none" stroke="black" d="M358.21,-71.37C316.59,-70.4 237.89,-68.57 196.4,-67.61"/>
</g>
<!-- ntq&#45;&#45;xhk -->
<g id="edge24" class="edge">
<title>ntq&#45;&#45;xhk</title>
<path fill="none" stroke="black" d="M362.7,-62.23C339.76,-52.44 304.68,-37.47 281.8,-27.71"/>
</g>
<!-- ntq&#45;&#45;hfx -->
<g id="edge22" class="edge">
<title>ntq&#45;&#45;hfx</title>
<path fill="none" stroke="black" d="M369.12,-86.36C353,-100.38 328.57,-121.63 312.37,-135.72"/>
</g>
<!-- ntq&#45;&#45;bvb -->
<g id="edge23" class="edge">
<title>ntq&#45;&#45;bvb</title>
<path fill="none" stroke="black" d="M381.44,-89.95C376.17,-112.55 367.17,-151.15 361.89,-173.8"/>
</g>
<!-- rzs -->
<g id="node15" class="node">
<title>rzs</title>
<ellipse fill="none" stroke="black" cx="206.48" cy="-503.89" rx="27" ry="18"/>
<text text-anchor="middle" x="206.48" y="-500.19" font-family="Times,serif" font-size="14.00">rzs</text>
</g>
<!-- rzs&#45;&#45;rsh -->
<g id="edge30" class="edge">
<title>rzs&#45;&#45;rsh</title>
<path fill="none" stroke="black" d="M232.27,-498.31C244.1,-495.75 258.1,-492.73 269.92,-490.17"/>
</g>
<!-- rzs&#45;&#45;lsr -->
<g id="edge29" class="edge">
<title>rzs&#45;&#45;lsr</title>
<path fill="none" stroke="black" d="M197.44,-486.56C191.57,-475.3 183.95,-460.69 178.09,-449.47"/>
</g>
<!-- rzs&#45;&#45;cmg -->
<g id="edge28" class="edge">
<title>rzs&#45;&#45;cmg</title>
<path fill="none" stroke="black" d="M205.01,-485.82C201.94,-447.9 194.86,-360.39 191.78,-322.38"/>
</g>
<!-- rzs&#45;&#45;qnr -->
<g id="edge27" class="edge">
<title>rzs&#45;&#45;qnr</title>
<path fill="none" stroke="black" d="M190,-489.41C164.66,-467.14 116.39,-424.72 90.93,-402.34"/>
</g>
</g>
</svg>
